<mxfile host="app.diagrams.net" modified="2022-05-13T11:53:49.848Z" agent="5.0 (Windows NT 10.0; Win64; x64) AppleWebKit/537.36 (KHTML, like Gecko) Chrome/98.0.4758.141 YaBrowser/22.3.3.852 Yowser/2.5 Safari/537.36" etag="AOyIyhONntYrAzRV0ct6" version="17.4.2" type="github">
  <diagram id="ewtlTZs74rAdIux-oBcO" name="Page-1">
    <mxGraphModel dx="1038" dy="543" grid="1" gridSize="10" guides="1" tooltips="1" connect="1" arrows="1" fold="1" page="1" pageScale="1" pageWidth="827" pageHeight="1169" math="0" shadow="0">
      <root>
        <mxCell id="0" />
        <mxCell id="1" parent="0" />
        <mxCell id="dnU_8cDY6BrIUEL2JxXQ-3" value="" style="edgeStyle=orthogonalEdgeStyle;rounded=0;orthogonalLoop=1;jettySize=auto;html=1;" edge="1" parent="1" source="dnU_8cDY6BrIUEL2JxXQ-1" target="dnU_8cDY6BrIUEL2JxXQ-2">
          <mxGeometry relative="1" as="geometry" />
        </mxCell>
        <mxCell id="dnU_8cDY6BrIUEL2JxXQ-1" value="Главная страница" style="rounded=0;whiteSpace=wrap;html=1;" vertex="1" parent="1">
          <mxGeometry x="50" y="50" width="120" height="60" as="geometry" />
        </mxCell>
        <mxCell id="dnU_8cDY6BrIUEL2JxXQ-5" value="" style="edgeStyle=orthogonalEdgeStyle;rounded=0;orthogonalLoop=1;jettySize=auto;html=1;" edge="1" parent="1" source="dnU_8cDY6BrIUEL2JxXQ-2" target="dnU_8cDY6BrIUEL2JxXQ-4">
          <mxGeometry relative="1" as="geometry" />
        </mxCell>
        <mxCell id="dnU_8cDY6BrIUEL2JxXQ-2" value="Каталог" style="rounded=0;whiteSpace=wrap;html=1;" vertex="1" parent="1">
          <mxGeometry x="250" y="50" width="120" height="60" as="geometry" />
        </mxCell>
        <mxCell id="dnU_8cDY6BrIUEL2JxXQ-7" value="" style="edgeStyle=orthogonalEdgeStyle;rounded=0;orthogonalLoop=1;jettySize=auto;html=1;" edge="1" parent="1" source="dnU_8cDY6BrIUEL2JxXQ-4" target="dnU_8cDY6BrIUEL2JxXQ-6">
          <mxGeometry relative="1" as="geometry" />
        </mxCell>
        <mxCell id="dnU_8cDY6BrIUEL2JxXQ-4" value="Фильтрация товаров" style="whiteSpace=wrap;html=1;rounded=0;" vertex="1" parent="1">
          <mxGeometry x="450" y="50" width="120" height="60" as="geometry" />
        </mxCell>
        <mxCell id="dnU_8cDY6BrIUEL2JxXQ-9" value="" style="edgeStyle=orthogonalEdgeStyle;rounded=0;orthogonalLoop=1;jettySize=auto;html=1;" edge="1" parent="1" source="dnU_8cDY6BrIUEL2JxXQ-6" target="dnU_8cDY6BrIUEL2JxXQ-8">
          <mxGeometry relative="1" as="geometry" />
        </mxCell>
        <mxCell id="dnU_8cDY6BrIUEL2JxXQ-6" value="Добавление понравившихся товаров в корзину" style="whiteSpace=wrap;html=1;rounded=0;" vertex="1" parent="1">
          <mxGeometry x="450" y="190" width="120" height="60" as="geometry" />
        </mxCell>
        <mxCell id="dnU_8cDY6BrIUEL2JxXQ-11" value="" style="edgeStyle=orthogonalEdgeStyle;rounded=0;orthogonalLoop=1;jettySize=auto;html=1;" edge="1" parent="1" source="dnU_8cDY6BrIUEL2JxXQ-8" target="dnU_8cDY6BrIUEL2JxXQ-10">
          <mxGeometry relative="1" as="geometry" />
        </mxCell>
        <mxCell id="dnU_8cDY6BrIUEL2JxXQ-8" value="Корзина" style="whiteSpace=wrap;html=1;rounded=0;" vertex="1" parent="1">
          <mxGeometry x="250" y="190" width="120" height="60" as="geometry" />
        </mxCell>
        <mxCell id="dnU_8cDY6BrIUEL2JxXQ-10" value="Заказ товара" style="whiteSpace=wrap;html=1;rounded=0;" vertex="1" parent="1">
          <mxGeometry x="50" y="190" width="120" height="60" as="geometry" />
        </mxCell>
        <mxCell id="dnU_8cDY6BrIUEL2JxXQ-14" value="" style="edgeStyle=orthogonalEdgeStyle;rounded=0;orthogonalLoop=1;jettySize=auto;html=1;" edge="1" parent="1" source="dnU_8cDY6BrIUEL2JxXQ-12" target="dnU_8cDY6BrIUEL2JxXQ-13">
          <mxGeometry relative="1" as="geometry" />
        </mxCell>
        <mxCell id="dnU_8cDY6BrIUEL2JxXQ-12" value="Главная страница" style="rounded=0;whiteSpace=wrap;html=1;" vertex="1" parent="1">
          <mxGeometry x="50" y="320" width="120" height="60" as="geometry" />
        </mxCell>
        <mxCell id="dnU_8cDY6BrIUEL2JxXQ-16" value="" style="edgeStyle=orthogonalEdgeStyle;rounded=0;orthogonalLoop=1;jettySize=auto;html=1;" edge="1" parent="1" source="dnU_8cDY6BrIUEL2JxXQ-13" target="dnU_8cDY6BrIUEL2JxXQ-15">
          <mxGeometry relative="1" as="geometry" />
        </mxCell>
        <mxCell id="dnU_8cDY6BrIUEL2JxXQ-13" value="Регистрация" style="whiteSpace=wrap;html=1;rounded=0;" vertex="1" parent="1">
          <mxGeometry x="250" y="320" width="120" height="60" as="geometry" />
        </mxCell>
        <mxCell id="dnU_8cDY6BrIUEL2JxXQ-18" value="" style="edgeStyle=orthogonalEdgeStyle;rounded=0;orthogonalLoop=1;jettySize=auto;html=1;" edge="1" parent="1" source="dnU_8cDY6BrIUEL2JxXQ-15" target="dnU_8cDY6BrIUEL2JxXQ-17">
          <mxGeometry relative="1" as="geometry" />
        </mxCell>
        <mxCell id="dnU_8cDY6BrIUEL2JxXQ-15" value="Заполнение формы" style="whiteSpace=wrap;html=1;rounded=0;" vertex="1" parent="1">
          <mxGeometry x="450" y="320" width="120" height="60" as="geometry" />
        </mxCell>
        <mxCell id="dnU_8cDY6BrIUEL2JxXQ-17" value="Регистрация" style="whiteSpace=wrap;html=1;rounded=0;" vertex="1" parent="1">
          <mxGeometry x="650" y="320" width="120" height="60" as="geometry" />
        </mxCell>
        <mxCell id="dnU_8cDY6BrIUEL2JxXQ-21" value="" style="edgeStyle=orthogonalEdgeStyle;rounded=0;orthogonalLoop=1;jettySize=auto;html=1;" edge="1" parent="1" source="dnU_8cDY6BrIUEL2JxXQ-19" target="dnU_8cDY6BrIUEL2JxXQ-20">
          <mxGeometry relative="1" as="geometry" />
        </mxCell>
        <mxCell id="dnU_8cDY6BrIUEL2JxXQ-19" value="Главная страница" style="rounded=0;whiteSpace=wrap;html=1;" vertex="1" parent="1">
          <mxGeometry x="50" y="430" width="120" height="60" as="geometry" />
        </mxCell>
        <mxCell id="dnU_8cDY6BrIUEL2JxXQ-23" value="" style="edgeStyle=orthogonalEdgeStyle;rounded=0;orthogonalLoop=1;jettySize=auto;html=1;" edge="1" parent="1" source="dnU_8cDY6BrIUEL2JxXQ-20" target="dnU_8cDY6BrIUEL2JxXQ-22">
          <mxGeometry relative="1" as="geometry" />
        </mxCell>
        <mxCell id="dnU_8cDY6BrIUEL2JxXQ-20" value="Профиль пользователя" style="whiteSpace=wrap;html=1;rounded=0;" vertex="1" parent="1">
          <mxGeometry x="250" y="430" width="120" height="60" as="geometry" />
        </mxCell>
        <mxCell id="dnU_8cDY6BrIUEL2JxXQ-25" value="" style="edgeStyle=orthogonalEdgeStyle;rounded=0;orthogonalLoop=1;jettySize=auto;html=1;" edge="1" parent="1" source="dnU_8cDY6BrIUEL2JxXQ-22" target="dnU_8cDY6BrIUEL2JxXQ-24">
          <mxGeometry relative="1" as="geometry" />
        </mxCell>
        <mxCell id="dnU_8cDY6BrIUEL2JxXQ-22" value="Редактирование данных" style="whiteSpace=wrap;html=1;rounded=0;" vertex="1" parent="1">
          <mxGeometry x="450" y="430" width="120" height="60" as="geometry" />
        </mxCell>
        <mxCell id="dnU_8cDY6BrIUEL2JxXQ-24" value="Сохранение изменений" style="whiteSpace=wrap;html=1;rounded=0;" vertex="1" parent="1">
          <mxGeometry x="650" y="430" width="120" height="60" as="geometry" />
        </mxCell>
        <mxCell id="dnU_8cDY6BrIUEL2JxXQ-28" value="" style="edgeStyle=orthogonalEdgeStyle;rounded=0;orthogonalLoop=1;jettySize=auto;html=1;" edge="1" parent="1" source="dnU_8cDY6BrIUEL2JxXQ-26" target="dnU_8cDY6BrIUEL2JxXQ-27">
          <mxGeometry relative="1" as="geometry" />
        </mxCell>
        <mxCell id="dnU_8cDY6BrIUEL2JxXQ-26" value="Главная страница" style="rounded=0;whiteSpace=wrap;html=1;" vertex="1" parent="1">
          <mxGeometry x="50" y="540" width="120" height="60" as="geometry" />
        </mxCell>
        <mxCell id="dnU_8cDY6BrIUEL2JxXQ-30" value="" style="edgeStyle=orthogonalEdgeStyle;rounded=0;orthogonalLoop=1;jettySize=auto;html=1;" edge="1" parent="1" source="dnU_8cDY6BrIUEL2JxXQ-27" target="dnU_8cDY6BrIUEL2JxXQ-29">
          <mxGeometry relative="1" as="geometry" />
        </mxCell>
        <mxCell id="dnU_8cDY6BrIUEL2JxXQ-27" value="Заказ праздников" style="whiteSpace=wrap;html=1;rounded=0;" vertex="1" parent="1">
          <mxGeometry x="250" y="540" width="120" height="60" as="geometry" />
        </mxCell>
        <mxCell id="dnU_8cDY6BrIUEL2JxXQ-32" value="" style="edgeStyle=orthogonalEdgeStyle;rounded=0;orthogonalLoop=1;jettySize=auto;html=1;" edge="1" parent="1" source="dnU_8cDY6BrIUEL2JxXQ-29" target="dnU_8cDY6BrIUEL2JxXQ-31">
          <mxGeometry relative="1" as="geometry" />
        </mxCell>
        <mxCell id="dnU_8cDY6BrIUEL2JxXQ-29" value="Заполнение формы" style="whiteSpace=wrap;html=1;rounded=0;" vertex="1" parent="1">
          <mxGeometry x="450" y="540" width="120" height="60" as="geometry" />
        </mxCell>
        <mxCell id="dnU_8cDY6BrIUEL2JxXQ-31" value="Отправка заявки" style="whiteSpace=wrap;html=1;rounded=0;" vertex="1" parent="1">
          <mxGeometry x="650" y="540" width="120" height="60" as="geometry" />
        </mxCell>
        <mxCell id="dnU_8cDY6BrIUEL2JxXQ-36" value="" style="edgeStyle=orthogonalEdgeStyle;rounded=0;orthogonalLoop=1;jettySize=auto;html=1;" edge="1" parent="1" source="dnU_8cDY6BrIUEL2JxXQ-34" target="dnU_8cDY6BrIUEL2JxXQ-35">
          <mxGeometry relative="1" as="geometry" />
        </mxCell>
        <mxCell id="dnU_8cDY6BrIUEL2JxXQ-34" value="Главная страница" style="rounded=0;whiteSpace=wrap;html=1;" vertex="1" parent="1">
          <mxGeometry x="50" y="650" width="120" height="60" as="geometry" />
        </mxCell>
        <mxCell id="dnU_8cDY6BrIUEL2JxXQ-38" value="" style="edgeStyle=orthogonalEdgeStyle;rounded=0;orthogonalLoop=1;jettySize=auto;html=1;" edge="1" parent="1" source="dnU_8cDY6BrIUEL2JxXQ-35" target="dnU_8cDY6BrIUEL2JxXQ-37">
          <mxGeometry relative="1" as="geometry" />
        </mxCell>
        <mxCell id="dnU_8cDY6BrIUEL2JxXQ-35" value="Бронирование столика" style="whiteSpace=wrap;html=1;rounded=0;" vertex="1" parent="1">
          <mxGeometry x="250" y="650" width="120" height="60" as="geometry" />
        </mxCell>
        <mxCell id="dnU_8cDY6BrIUEL2JxXQ-40" value="" style="edgeStyle=orthogonalEdgeStyle;rounded=0;orthogonalLoop=1;jettySize=auto;html=1;" edge="1" parent="1" source="dnU_8cDY6BrIUEL2JxXQ-37" target="dnU_8cDY6BrIUEL2JxXQ-39">
          <mxGeometry relative="1" as="geometry" />
        </mxCell>
        <mxCell id="dnU_8cDY6BrIUEL2JxXQ-37" value="Заполнение формы" style="whiteSpace=wrap;html=1;rounded=0;" vertex="1" parent="1">
          <mxGeometry x="450" y="650" width="120" height="60" as="geometry" />
        </mxCell>
        <mxCell id="dnU_8cDY6BrIUEL2JxXQ-39" value="Отправка заявки" style="whiteSpace=wrap;html=1;rounded=0;" vertex="1" parent="1">
          <mxGeometry x="650" y="650" width="120" height="60" as="geometry" />
        </mxCell>
      </root>
    </mxGraphModel>
  </diagram>
</mxfile>
